Coordinates
version=1
nRows=18
nColumns=22
inDegrees=yes

Units are S.I. units (second, meters, Newtons, ...)
If the header above contains a line with 'inDegrees', this indicates whether rotational values are in degrees (yes) or radians (no).

endheader
time	pelvis_tilt	pelvis_list	pelvis_rotation	pelvis_tx	pelvis_ty	pelvis_tz	hip_flexion_r	hip_adduction_r	hip_rotation_r	knee_angle_r	ankle_angle_r	subtalar_angle_r	hip_flexion_l	hip_adduction_l	hip_rotation_l	knee_angle_l	ankle_angle_l	subtalar_angle_l	lumbar_extension	lumbar_bending	lumbar_rotation
      1.49000000	     -9.26284303	      6.11999168	    -37.37453133	     -1.37518347	      0.87873288	     -0.26293156	     12.34940567	     -2.84919555	      3.86737655	    -13.19153633	     16.85392462	      2.30751873	     10.71930210	     -5.47153886	     -9.33314640	    -14.85843908	     16.12606164	      4.68102937	      3.71015442	     -0.73167543	     14.17467859
      1.50000000	     -9.34659057	      6.17792540	    -37.37170910	     -1.37495048	      0.87851739	     -0.26208582	     12.43940416	     -2.78629815	      3.90430351	    -13.26222365	     16.91406170	      2.13787483	     10.73566486	     -5.51283951	     -9.34180188	    -14.78282471	     16.13797735	      4.76292317	      3.74142804	     -0.72707254	     14.12567915
      1.51000000	     -9.43112078	      6.25176077	    -37.37481829	     -1.37475257	      0.87827628	     -0.26120334	     12.55406301	     -2.72913030	      3.95601232	    -13.35852338	     16.98810941	      1.98167333	     10.76113847	     -5.54476869	     -9.36142652	    -14.70752193	     16.14743898	      4.81904648	      3.78223139	     -0.73964216	     14.07961524
      1.52000000	     -9.51717483	      6.33457160	    -37.38026455	     -1.37458168	      0.87801290	     -0.26028115	     12.68773512	     -2.67111980	      4.01912189	    -13.47981879	     17.07352710	      1.79555051	     10.79346350	     -5.57309949	     -9.38657094	    -14.63475166	     16.15607124	      4.87567907	      3.82898025	     -0.76244094	     14.03112291
      1.53000000	     -9.59829204	      6.41442051	    -37.39680042	     -1.37441392	      0.87774205	     -0.25928474	     12.82042185	     -2.60568754	      4.09922386	    -13.61449075	     17.16987740	      1.59019717	     10.80923194	     -5.60492808	     -9.42015167	    -14.55561912	     16.16756356	      4.93069569	      3.87208854	     -0.78907873	     13.98310610
      1.54000000	     -9.66239383	      6.46071507	    -37.41736017	     -1.37421451	      0.87750405	     -0.25821406	     12.90788719	     -2.51966567	      4.17895893	    -13.74274810	     17.27430701	      1.48818818	     10.77138667	     -5.65350908	     -9.42997203	    -14.45311878	     16.18269951	      4.95557851	      3.87955786	     -0.79802105	     13.93635278
      1.55000000	     -9.73963131	      6.55389058	    -37.45326982	     -1.37405944	      0.87718313	     -0.25707949	     13.05417264	     -2.45132872	      4.30377954	    -13.90004538	     17.37540358	      1.08289248	     10.79025382	     -5.68346153	     -9.51342349	    -14.38941848	     16.20046475	      5.05379164	      3.93341589	     -0.84333883	     13.88551401
      1.56000000	     -9.77342616	      6.61058239	    -37.50437684	     -1.37383907	      0.87691412	     -0.25584221	     13.13784502	     -2.38069198	      4.40185147	    -14.06672234	     17.52374689	      0.90828917	     10.72913342	     -5.71739258	     -9.60758231	    -14.30828422	     16.24324382	      5.09170104	      3.93037614	     -0.88402832	     13.84511337
      1.57000000	     -9.81336909	      6.66123951	    -37.56586774	     -1.37362928	      0.87662266	     -0.25451945	     13.22189446	     -2.29240358	      4.53346739	    -14.23653550	     17.66374782	      0.63788702	     10.67274375	     -5.76780995	     -9.69846211	    -14.24403029	     16.28562655	      5.15012568	      3.93274704	     -0.91637899	     13.80697190
      1.58000000	     -9.84747904	      6.69594161	    -37.62884715	     -1.37341693	      0.87633102	     -0.25311978	     13.28526991	     -2.18947072	      4.67572261	    -14.40326037	     17.80305768	      0.33496290	     10.61266394	     -5.83333425	     -9.77621558	    -14.20849383	     16.33503811	      5.21454064	      3.92166615	     -0.93957573	     13.76747627
      1.59000000	     -9.86507724	      6.71954024	    -37.70697669	     -1.37316958	      0.87603030	     -0.25161252	     13.33036181	     -2.08767216	      4.79414609	    -14.58337713	     17.97769072	      0.15310938	     10.54254924	     -5.90770639	     -9.88756170	    -14.21348447	     16.43067408	      5.24552976	      3.89788901	     -0.96187061	     13.73099495
      1.60000000	     -9.89184805	      6.73756881	    -37.80103763	     -1.37295293	      0.87570176	     -0.25000851	     13.37959914	     -1.96268688	      4.95995443	    -14.76534888	     18.14962699	     -0.17154895	     10.49675395	     -6.00307443	     -9.97132123	    -14.26920709	     16.51919483	      5.31195283	      3.88334536	     -0.97202504	     13.71120133
      1.61000000	     -9.89250704	      6.72800783	    -37.88861913	     -1.37267429	      0.87538749	     -0.24833384	     13.38610369	     -1.83887895	      5.07895448	    -14.95544743	     18.36309095	     -0.25676697	     10.44110925	     -6.11016729	    -10.03432170	    -14.39299795	     16.65579395	      5.31836422	      3.83335552	     -0.97333409	     13.68190723
      1.62000000	     -9.91498420	      6.72853801	    -38.01546056	     -1.37246845	      0.87500457	     -0.24652261	     13.42957963	     -1.68903468	      5.27480240	    -15.16217245	     18.53183569	     -0.51435295	     10.45419035	     -6.25206958	    -10.18176548	    -14.62088692	     16.84711212	      5.36419250	      3.81473092	     -0.96932238	     13.68047092
      1.63000000	     -9.93363020	      6.69771226	    -38.12461195	     -1.37221385	      0.87461516	     -0.24466506	     13.43691889	     -1.52121161	      5.42781905	    -15.35959201	     18.74470517	     -0.72214404	     10.49565175	     -6.42187178	    -10.23465306	    -14.95122369	     17.05674675	      5.40346577	      3.77723520	     -0.93812036	     13.68884634
      1.64000000	     -9.96491465	      6.65306788	    -38.24186202	     -1.37194626	      0.87418456	     -0.24272559	     13.43962614	     -1.32886183	      5.59772431	    -15.55343471	     18.95441419	     -0.92107765	     10.59053955	     -6.62663471	    -10.27723270	    -15.38992962	     17.29951101	      5.44217336	      3.74911961	     -0.87857768	     13.69023858
      1.65000000	    -10.01983558	      6.59794131	    -38.35173199	     -1.37168219	      0.87368753	     -0.24071535	     13.44391374	     -1.10859784	      5.77444732	    -15.73602659	     19.19400731	     -1.17238920	     10.77202110	     -6.87335244	    -10.29907918	    -15.96947618	     17.57315290	      5.50497442	      3.74085915	     -0.79376398	     13.68076861
      1.66000000	    -10.05505677	      6.50074960	    -38.47858808	     -1.37139751	      0.87320375	     -0.23863606	     13.40487562	     -0.86455594	      5.94541146	    -15.92708160	     19.40487070	     -1.31691070	     10.97664300	     -7.15823206	    -10.30471037	    -16.68782580	     17.89933636	      5.52961855	      3.68815878	     -0.67658217	     13.69846681
